<?xml version="1.0" encoding="UTF-8"?>
<!-- Do not edit this file with editors other than diagrams.net -->
<!DOCTYPE svg PUBLIC "-//W3C//DTD SVG 1.1//EN" "http://www.w3.org/Graphics/SVG/1.1/DTD/svg11.dtd">
<svg xmlns="http://www.w3.org/2000/svg" xmlns:xlink="http://www.w3.org/1999/xlink" version="1.1" width="169px" height="180px" viewBox="-0.5 -0.5 169 180" content="&lt;mxfile host=&quot;app.diagrams.net&quot; modified=&quot;2022-03-29T05:08:54.628Z&quot; agent=&quot;5.0 (Windows NT 10.0; Win64; x64) AppleWebKit/537.36 (KHTML, like Gecko) Chrome/99.0.4844.74 Safari/537.36 Edg/99.0.1150.55&quot; etag=&quot;YmsC8TNU-7f8fN0ViP48&quot; version=&quot;17.2.4&quot;&gt;&lt;diagram id=&quot;Br4_55Aq70W62GK2KMll&quot; name=&quot;Page-1&quot;&gt;jVPLbsMgEPwaHxvZpsrj2DyaVGqjqlHVMzVbQMHGwjh2+vWFAH4kitST2WGY3Z1dR2iVt1uFS/YmCYgojUkboXWUpkkyQ+ZjkbNDpovYAVRx4kk9cOC/4MFAqzmBakTUUgrNyzGYyaKATI8wrJRsxrQfKcZZS0zhBjhkWNyiX5xo5tB5OuvxHXDKQuZkunA3OQ5k30nFMJHNAEKbCK2UlNqd8nYFwpoXfHHvnu/cdoUpKPR/HqhX0ZT7/Ue8fVE7BA2df8oHr3LCovYN+2L1OThg6i7tMW+pHfHEuZpOGiAUnmywxhUDk2XJdC4MMzHHbygI/r5oxCZUsi6I5VyizgrLrI6gMxYCreSxc9p4tHT12Fx3+046N80agsxBq7OhNP28ktgPgQ1nFUAFAmt+GifAfnFoJ9jleJfcpE7jsORzr+NXHIU4SFSyVhn4V8MJXQmhZCyUPl4Jaawo6Bshcxg03kOXBQhhv2iO3v+uaPMH&lt;/diagram&gt;&lt;/mxfile&gt;" style="background-color: rgb(255, 255, 255);"><defs/><g><path d="M -10 132 L 46 184 M 9.75 117.75 L 58.75 163.25 M 29.5 103.5 L 71.5 142.5 M 49.25 89.25 L 84.25 121.75 M 69 75 L 97 101 M 88.75 60.75 L 109.75 80.25 M 108.5 46.5 L 122.5 59.5 M 128.25 32.25 L 135.25 38.75 M 147.44 17.48 L 148.56 18.52" fill="none" stroke="none" pointer-events="all" transform="translate(2,3)" opacity="0.25"/><path d="M -10 132 L 46 184 M 9.75 117.75 L 58.75 163.25 M 29.5 103.5 L 71.5 142.5 M 49.25 89.25 L 84.25 121.75 M 69 75 L 97 101 M 88.75 60.75 L 109.75 80.25 M 108.5 46.5 L 122.5 59.5 M 128.25 32.25 L 135.25 38.75 M 147.44 17.48 L 148.56 18.52" fill="none" stroke="none" pointer-events="all"/><path d="M -10 132 M -10 132 C 6.81 147.15 21.63 158.57 46 184 M -10 132 C 5.61 147.3 21.45 160.84 46 184 M 9.75 117.75 M 9.75 117.75 C 25.59 129.41 38.2 145.39 58.75 163.25 M 9.75 117.75 C 28.48 134.33 46.84 151.73 58.75 163.25 M 29.5 103.5 M 29.5 103.5 C 41.65 115.29 53.58 125.24 71.5 142.5 M 29.5 103.5 C 44.19 117.42 59.22 130.94 71.5 142.5 M 49.25 89.25 M 49.25 89.25 C 59.34 95.39 64.73 104.79 84.25 121.75 M 49.25 89.25 C 59.33 98.31 68.44 106.71 84.25 121.75 M 69 75 M 69 75 C 76.72 83.75 87.99 94.1 97 101 M 69 75 C 76.81 82.89 84.3 89.74 97 101 M 88.75 60.75 M 88.75 60.75 C 93.67 65.92 98.88 71.58 109.75 80.25 M 88.75 60.75 C 94.54 66.45 100.5 70.58 109.75 80.25 M 108.5 46.5 M 108.5 46.5 C 110.94 50.99 114.04 52.97 122.5 59.5 M 108.5 46.5 C 111.22 50.29 114.03 52.54 122.5 59.5 M 128.25 32.25 M 128.25 32.25 C 131.06 33.45 132.39 36.49 135.25 38.75 M 128.25 32.25 C 129.86 33.59 131.31 35.8 135.25 38.75 M 147.44 17.48 M 147.44 17.48 C 147.66 17.8 147.78 17.86 148.56 18.52 M 147.44 17.48 C 147.74 17.77 148.21 18.1 148.56 18.52" fill="none" stroke="#000000" stroke-width="2" stroke-linejoin="round" stroke-linecap="round" stroke-miterlimit="10" pointer-events="all" transform="translate(2,3)" opacity="0.25"/><path d="M -10 132 M -10 132 C 6.81 147.15 21.63 158.57 46 184 M -10 132 C 5.61 147.3 21.45 160.84 46 184 M 9.75 117.75 M 9.75 117.75 C 25.59 129.41 38.2 145.39 58.75 163.25 M 9.75 117.75 C 28.48 134.33 46.84 151.73 58.75 163.25 M 29.5 103.5 M 29.5 103.5 C 41.65 115.29 53.58 125.24 71.5 142.5 M 29.5 103.5 C 44.19 117.42 59.22 130.94 71.5 142.5 M 49.25 89.25 M 49.25 89.25 C 59.34 95.39 64.73 104.79 84.25 121.75 M 49.25 89.25 C 59.33 98.31 68.44 106.71 84.25 121.75 M 69 75 M 69 75 C 76.72 83.75 87.99 94.1 97 101 M 69 75 C 76.81 82.89 84.3 89.74 97 101 M 88.75 60.75 M 88.75 60.75 C 93.67 65.92 98.88 71.58 109.75 80.25 M 88.75 60.75 C 94.54 66.45 100.5 70.58 109.75 80.25 M 108.5 46.5 M 108.5 46.5 C 110.94 50.99 114.04 52.97 122.5 59.5 M 108.5 46.5 C 111.22 50.29 114.03 52.54 122.5 59.5 M 128.25 32.25 M 128.25 32.25 C 131.06 33.45 132.39 36.49 135.25 38.75 M 128.25 32.25 C 129.86 33.59 131.31 35.8 135.25 38.75 M 147.44 17.48 M 147.44 17.48 C 147.66 17.8 147.78 17.86 148.56 18.52 M 147.44 17.48 C 147.74 17.77 148.21 18.1 148.56 18.52" fill="none" stroke="rgb(0, 0, 0)" stroke-width="2" stroke-linejoin="round" stroke-linecap="round" stroke-miterlimit="10" pointer-events="all"/></g></svg>